<?xml version="1.0" encoding="UTF-8"?>
<svg id="Layer_2" data-name="Layer 2" xmlns="http://www.w3.org/2000/svg" viewBox="0 0 310 310">
  <defs>
    <style>
      .cls-1 {
        fill: #c2ad76;
      }

      .cls-2 {
        stroke: #c2ad76;
        stroke-width: .75px;
      }

      .cls-2, .cls-3, .cls-4, .cls-5 {
        fill: none;
      }

      .cls-6 {
        fill: #f0e3c6;
      }

      .cls-3 {
        stroke-width: .2px;
      }

      .cls-3, .cls-5 {
        stroke: #2c2611;
      }

      .cls-5 {
        stroke-width: .95px;
      }
    </style>
  </defs>
  <g id="ELEMENTOS">
    <g>
      <rect class="cls-4" width="310" height="310"/>
      <g>
        <g>
          <path class="cls-5" d="M95.75,265.17c-1.32,0-2.62-.35-3.77-1.01-3.61-2.09-4.86-6.72-2.77-10.34,1.35-2.33,3.86-3.78,6.56-3.78,1.32,0,2.62.35,3.77,1.01,1.75,1.01,3,2.64,3.53,4.59.52,1.95.25,3.99-.76,5.74-1.35,2.33-3.86,3.79-6.56,3.79h0Z"/>
          <path class="cls-6" d="M95.75,265.17c-1.32,0-2.62-.35-3.77-1.01-3.61-2.09-4.86-6.72-2.77-10.34,1.35-2.33,3.86-3.78,6.56-3.78,1.32,0,2.62.35,3.77,1.01,1.75,1.01,3,2.64,3.53,4.59.52,1.95.25,3.99-.76,5.74-1.35,2.33-3.86,3.79-6.56,3.79h0Z"/>
          <path class="cls-2" d="M95.75,265.17c-1.32,0-2.62-.35-3.77-1.01-3.61-2.09-4.86-6.72-2.77-10.34,1.35-2.33,3.86-3.78,6.56-3.78,1.32,0,2.62.35,3.77,1.01,1.75,1.01,3,2.64,3.53,4.59.52,1.95.25,3.99-.76,5.74-1.35,2.33-3.86,3.79-6.56,3.79h0Z"/>
        </g>
        <g>
          <path class="cls-5" d="M214.25,265.17c-2.7,0-5.21-1.45-6.56-3.78-2.09-3.61-.84-8.25,2.77-10.33,1.15-.66,2.46-1.01,3.78-1.01,2.7,0,5.21,1.45,6.56,3.78,2.09,3.61.84,8.25-2.77,10.33-1.15.66-2.46,1.01-3.78,1.01h0Z"/>
          <path class="cls-6" d="M214.25,265.17c-2.7,0-5.21-1.45-6.56-3.78-2.09-3.61-.84-8.25,2.77-10.33,1.15-.66,2.46-1.01,3.78-1.01,2.7,0,5.21,1.45,6.56,3.78,2.09,3.61.84,8.25-2.77,10.33-1.15.66-2.46,1.01-3.78,1.01h0Z"/>
          <path class="cls-2" d="M214.25,265.17c-2.7,0-5.21-1.45-6.56-3.78-2.09-3.61-.84-8.25,2.77-10.33,1.15-.66,2.46-1.01,3.78-1.01,2.7,0,5.21,1.45,6.56,3.78,2.09,3.61.84,8.25-2.77,10.33-1.15.66-2.46,1.01-3.78,1.01h0Z"/>
        </g>
        <g>
          <path class="cls-5" d="M58.06,173.34c-6.92,0-13.14-3.81-16.3-9.97,2.87-1.8,4.64-4.97,4.64-8.36s-1.77-6.56-4.64-8.36c3.16-6.16,9.38-9.98,16.3-9.98,10.11,0,18.34,8.23,18.34,18.34s-8.23,18.34-18.34,18.34Z"/>
          <path class="cls-6" d="M58.06,173.34c-6.92,0-13.14-3.81-16.3-9.97,2.87-1.8,4.64-4.97,4.64-8.36s-1.77-6.56-4.64-8.36c3.16-6.16,9.38-9.98,16.3-9.98,10.11,0,18.34,8.23,18.34,18.34s-8.23,18.34-18.34,18.34Z"/>
          <path class="cls-2" d="M58.06,173.34c-6.92,0-13.14-3.81-16.3-9.97,2.87-1.8,4.64-4.97,4.64-8.36s-1.77-6.56-4.64-8.36c3.16-6.16,9.38-9.98,16.3-9.98,10.11,0,18.34,8.23,18.34,18.34s-8.23,18.34-18.34,18.34Z"/>
        </g>
        <g>
          <path class="cls-5" d="M106.52,257.27c-.3,0-.6,0-.9-.02-.13-3.38-1.99-6.5-4.92-8.19-1.5-.86-3.2-1.32-4.92-1.32-1.62,0-3.21.4-4.64,1.15-3.76-5.82-3.95-13.11-.49-19.1,3.27-5.66,9.36-9.17,15.9-9.17,3.2,0,6.36.85,9.15,2.46,4.24,2.45,7.28,6.4,8.54,11.13s.62,9.67-1.83,13.91c-3.26,5.64-9.35,9.15-15.89,9.15h0Z"/>
          <path class="cls-6" d="M106.52,257.27c-.3,0-.6,0-.9-.02-.13-3.38-1.99-6.5-4.92-8.19-1.5-.86-3.2-1.32-4.92-1.32-1.62,0-3.21.4-4.64,1.15-3.76-5.82-3.95-13.11-.49-19.1,3.27-5.66,9.36-9.17,15.9-9.17,3.2,0,6.36.85,9.15,2.46,4.24,2.45,7.28,6.4,8.54,11.13s.62,9.67-1.83,13.91c-3.26,5.64-9.35,9.15-15.89,9.15h0Z"/>
          <path class="cls-2" d="M106.52,257.27c-.3,0-.6,0-.9-.02-.13-3.38-1.99-6.5-4.92-8.19-1.5-.86-3.2-1.32-4.92-1.32-1.62,0-3.21.4-4.64,1.15-3.76-5.82-3.95-13.11-.49-19.1,3.27-5.66,9.36-9.17,15.9-9.17,3.2,0,6.36.85,9.15,2.46,4.24,2.45,7.28,6.4,8.54,11.13s.62,9.67-1.83,13.91c-3.26,5.64-9.35,9.15-15.89,9.15h0Z"/>
        </g>
        <g>
          <path class="cls-5" d="M203.48,257.27c-6.54,0-12.63-3.51-15.89-9.15-5.06-8.75-2.04-19.99,6.71-25.05,2.79-1.61,5.95-2.46,9.15-2.46,6.54,0,12.63,3.51,15.89,9.17,3.46,6,3.27,13.28-.49,19.1-1.43-.75-3.03-1.15-4.64-1.15-1.72,0-3.42.46-4.92,1.32-2.93,1.69-4.8,4.81-4.92,8.19-.3.01-.6.02-.9.02h0Z"/>
          <path class="cls-6" d="M203.48,257.27c-6.54,0-12.63-3.51-15.89-9.15-5.06-8.75-2.04-19.99,6.71-25.05,2.79-1.61,5.95-2.46,9.15-2.46,6.54,0,12.63,3.51,15.89,9.17,3.46,6,3.27,13.28-.49,19.1-1.43-.75-3.03-1.15-4.64-1.15-1.72,0-3.42.46-4.92,1.32-2.93,1.69-4.8,4.81-4.92,8.19-.3.01-.6.02-.9.02h0Z"/>
          <path class="cls-2" d="M203.48,257.27c-6.54,0-12.63-3.51-15.89-9.15-5.06-8.75-2.04-19.99,6.71-25.05,2.79-1.61,5.95-2.46,9.15-2.46,6.54,0,12.63,3.51,15.89,9.17,3.46,6,3.27,13.28-.49,19.1-1.43-.75-3.03-1.15-4.64-1.15-1.72,0-3.42.46-4.92,1.32-2.93,1.69-4.8,4.81-4.92,8.19-.3.01-.6.02-.9.02h0Z"/>
        </g>
        <g>
          <path class="cls-5" d="M36.52,162.57c-4.17,0-7.57-3.39-7.57-7.57s3.39-7.57,7.57-7.57,7.57,3.4,7.57,7.57-3.4,7.57-7.57,7.57Z"/>
          <path class="cls-6" d="M36.52,162.57c-4.17,0-7.57-3.39-7.57-7.57s3.39-7.57,7.57-7.57,7.57,3.4,7.57,7.57-3.4,7.57-7.57,7.57Z"/>
          <path class="cls-2" d="M36.52,162.57c-4.17,0-7.57-3.39-7.57-7.57s3.39-7.57,7.57-7.57,7.57,3.4,7.57,7.57-3.4,7.57-7.57,7.57Z"/>
        </g>
        <g>
          <path class="cls-3" d="M273.48,144.23c-.88,0-1.78.12-2.69.35h0c-3.8-6.86-11.02-11.12-18.85-11.12-.6,0-1.19.04-1.78.09-4.42-19.61-14.74-37.01-29.02-50.2.35-.5.68-1,.98-1.53,3.91-6.78,3.83-15.16-.21-21.88h0c.66-.67,1.21-1.4,1.65-2.16,1.44-2.49,1.82-5.39,1.07-8.17s-2.53-5.1-5.01-6.54c-1.64-.94-3.49-1.44-5.37-1.44-3.84,0-7.42,2.06-9.34,5.39-.44.76-.79,1.61-1.04,2.51h0s-.38,0-.38,0c-7.68,0-14.84,4.12-18.67,10.77-.3.52-.56,1.04-.81,1.58-9.17-2.86-18.91-4.43-29.01-4.43s-19.84,1.56-29.01,4.43c-.25-.53-.51-1.06-.81-1.58-3.83-6.64-10.99-10.77-18.68-10.77h-.37s0,0,0,0c-.25-.9-.6-1.75-1.04-2.51-1.92-3.32-5.5-5.39-9.34-5.39-1.88,0-3.74.5-5.37,1.44-2.49,1.44-4.27,3.76-5.02,6.54s-.36,5.68,1.08,8.17c.44.76.99,1.48,1.65,2.16-4.04,6.72-4.12,15.11-.21,21.88.3.53.64,1.03.98,1.53-14.28,13.19-24.6,30.59-29.02,50.2-.59-.05-1.18-.09-1.78-.09-7.83,0-15.05,4.26-18.85,11.12-7.05-1.81-13.46,3.6-13.46,10.42,0,6.82,6.43,12.23,13.46,10.42,3.8,6.86,11.02,11.12,18.85,11.12.6,0,1.19-.04,1.78-.09,4.42,19.61,14.74,37.01,29.02,50.2-.34.49-.68,1-.98,1.53-3.91,6.78-3.83,15.16.21,21.88h0c-.66.67-1.21,1.4-1.65,2.16-2.97,5.14-1.2,11.74,3.94,14.71,1.64.94,3.49,1.44,5.37,1.44,3.84,0,7.42-2.06,9.34-5.39.44-.76.79-1.61,1.04-2.51h0s.38,0,.38,0c7.68,0,14.84-4.12,18.67-10.77.3-.52.56-1.04.81-1.58,9.17,2.86,18.91,4.43,29.01,4.43s19.84-1.56,29.01-4.43c.25.53.51,1.06.81,1.58,3.83,6.64,10.99,10.77,18.68,10.77h.37s0,0,0,0c.25.91.6,1.75,1.04,2.51,1.92,3.32,5.5,5.39,9.34,5.39h0c1.88,0,3.74-.5,5.37-1.44,2.49-1.44,4.27-3.76,5.02-6.54.74-2.78.36-5.68-1.08-8.17-.44-.76-.99-1.48-1.65-2.16,4.04-6.72,4.12-15.11.21-21.88-.3-.53-.64-1.03-.98-1.53,14.28-13.19,24.6-30.59,29.02-50.2.59.05,1.18.09,1.78.09,7.83,0,15.05-4.26,18.85-11.12.91.23,1.81.35,2.69.35,5.94,0,10.77-4.83,10.77-10.77s-4.83-10.77-10.77-10.77ZM185.91,60.91c3.61-6.25,10.34-10.13,17.57-10.13l1.35.02.26-.94c.22-.8.53-1.55.92-2.21,1.69-2.93,4.85-4.75,8.24-4.75,1.66,0,3.3.44,4.74,1.27,2.2,1.27,3.77,3.32,4.42,5.77.66,2.45.32,5.01-.94,7.21-.39.67-.88,1.31-1.46,1.9l-.69.7.5.84c3.8,6.33,3.88,14.22.2,20.6-3.61,6.25-10.35,10.14-17.58,10.14-3.54,0-7.04-.94-10.12-2.72-4.69-2.71-8.04-7.08-9.44-12.31-1.4-5.23-.68-10.69,2.02-15.38ZM89.17,60.59l.5-.84-.69-.7c-.58-.59-1.07-1.23-1.46-1.9-1.27-2.2-1.61-4.76-.95-7.21.66-2.45,2.23-4.5,4.43-5.77,1.44-.83,3.08-1.27,4.74-1.27,3.39,0,6.55,1.82,8.24,4.75.39.67.7,1.41.92,2.22l.26.94,1.34-.02c7.23,0,13.97,3.88,17.58,10.13,2.71,4.69,3.43,10.15,2.03,15.38-1.4,5.23-4.76,9.6-9.44,12.31-3.08,1.78-6.58,2.72-10.12,2.72-7.23,0-13.96-3.89-17.57-10.14-3.68-6.38-3.61-14.27.2-20.6ZM40.32,164.8l-.47-.86-.95.25c-6.24,1.62-11.88-3.18-11.88-9.19,0-6.01,5.59-10.81,11.88-9.19l.95.24.47-.86c3.58-6.46,10.37-10.47,17.74-10.47,11.18,0,20.27,9.1,20.27,20.27s-9.1,20.28-20.27,20.28c-7.37,0-14.17-4.01-17.74-10.47ZM124.09,249.08c-3.61,6.25-10.34,10.13-17.57,10.13l-1.35-.02-.26.94c-.22.8-.53,1.54-.92,2.22-1.69,2.93-4.85,4.75-8.24,4.75-1.66,0-3.3-.44-4.74-1.27-4.54-2.62-6.1-8.44-3.48-12.98.39-.67.88-1.31,1.46-1.9l.69-.7-.5-.84c-3.81-6.33-3.88-14.22-.2-20.6,3.61-6.25,10.34-10.14,17.57-10.14,3.54,0,7.03.94,10.12,2.72,4.69,2.71,8.04,7.08,9.45,12.31,1.4,5.23.68,10.69-2.03,15.38ZM220.83,249.41l-.5.84.69.7c.59.6,1.08,1.24,1.46,1.9,1.27,2.2,1.61,4.76.95,7.21-.66,2.45-2.23,4.5-4.43,5.77-1.44.83-3.08,1.27-4.74,1.27-3.39,0-6.55-1.82-8.24-4.75-.39-.67-.69-1.41-.92-2.22l-.26-.94-1.34.02c-7.23,0-13.97-3.88-17.58-10.13-2.71-4.69-3.43-10.15-2.02-15.38,1.4-5.23,4.76-9.6,9.44-12.31,3.08-1.78,6.58-2.72,10.12-2.72,7.23,0,13.97,3.89,17.58,10.14,3.68,6.38,3.61,14.27-.2,20.6ZM220.38,225.63c-4.05-5.13-10.29-8.22-16.93-8.22-3.76,0-7.48,1-10.75,2.89-4.98,2.88-8.54,7.52-10.03,13.08-1.22,4.57-.9,9.29.84,13.6-9.01,2.8-18.58,4.33-28.5,4.33s-19.49-1.53-28.5-4.33c1.74-4.31,2.06-9.03.84-13.6-1.49-5.56-5.05-10.2-10.04-13.08-3.27-1.89-6.99-2.89-10.75-2.89-6.64,0-12.88,3.09-16.93,8.22-14.01-12.98-24.15-30.07-28.51-49.33,10.44-1.49,18.5-10.46,18.5-21.3s-8.06-19.81-18.5-21.3c4.37-19.26,14.5-36.35,28.51-49.33,4.05,5.13,10.29,8.22,16.93,8.22h0c3.76,0,7.48-1,10.75-2.89,4.98-2.88,8.55-7.52,10.03-13.08,1.22-4.57.9-9.29-.84-13.6,9.01-2.8,18.58-4.33,28.5-4.33s19.49,1.53,28.51,4.33c-1.74,4.31-2.06,9.03-.84,13.6,1.49,5.56,5.06,10.2,10.04,13.08,3.27,1.89,6.99,2.89,10.75,2.89h0c6.64,0,12.88-3.09,16.93-8.22,14.01,12.98,24.15,30.07,28.51,49.32-10.44,1.49-18.5,10.46-18.5,21.3s8.06,19.81,18.5,21.3c-4.37,19.26-14.5,36.35-28.51,49.33ZM271.1,164.19l-.95-.24-.47.86c-3.58,6.46-10.38,10.47-17.74,10.47-11.18,0-20.28-9.1-20.28-20.27s9.1-20.27,20.28-20.27c7.37,0,14.16,4.01,17.74,10.47l.47.86.95-.24c6.24-1.61,11.88,3.18,11.88,9.19s-5.63,10.8-11.88,9.19Z"/>
          <path class="cls-1" d="M273.48,144.23c-.88,0-1.78.12-2.69.35h0c-3.8-6.86-11.02-11.12-18.85-11.12-.6,0-1.19.04-1.78.09-4.42-19.61-14.74-37.01-29.02-50.2.35-.5.68-1,.98-1.53,3.91-6.78,3.83-15.16-.21-21.88h0c.66-.67,1.21-1.4,1.65-2.16,1.44-2.49,1.82-5.39,1.07-8.17s-2.53-5.1-5.01-6.54c-1.64-.94-3.49-1.44-5.37-1.44-3.84,0-7.42,2.06-9.34,5.39-.44.76-.79,1.61-1.04,2.51h0s-.38,0-.38,0c-7.68,0-14.84,4.12-18.67,10.77-.3.52-.56,1.04-.81,1.58-9.17-2.86-18.91-4.43-29.01-4.43s-19.84,1.56-29.01,4.43c-.25-.53-.51-1.06-.81-1.58-3.83-6.64-10.99-10.77-18.68-10.77h-.37s0,0,0,0c-.25-.9-.6-1.75-1.04-2.51-1.92-3.32-5.5-5.39-9.34-5.39-1.88,0-3.74.5-5.37,1.44-2.49,1.44-4.27,3.76-5.02,6.54s-.36,5.68,1.08,8.17c.44.76.99,1.48,1.65,2.16-4.04,6.72-4.12,15.11-.21,21.88.3.53.64,1.03.98,1.53-14.28,13.19-24.6,30.59-29.02,50.2-.59-.05-1.18-.09-1.78-.09-7.83,0-15.05,4.26-18.85,11.12-7.05-1.81-13.46,3.6-13.46,10.42,0,6.82,6.43,12.23,13.46,10.42,3.8,6.86,11.02,11.12,18.85,11.12.6,0,1.19-.04,1.78-.09,4.42,19.61,14.74,37.01,29.02,50.2-.34.49-.68,1-.98,1.53-3.91,6.78-3.83,15.16.21,21.88h0c-.66.67-1.21,1.4-1.65,2.16-2.97,5.14-1.2,11.74,3.94,14.71,1.64.94,3.49,1.44,5.37,1.44,3.84,0,7.42-2.06,9.34-5.39.44-.76.79-1.61,1.04-2.51h0s.38,0,.38,0c7.68,0,14.84-4.12,18.67-10.77.3-.52.56-1.04.81-1.58,9.17,2.86,18.91,4.43,29.01,4.43s19.84-1.56,29.01-4.43c.25.53.51,1.06.81,1.58,3.83,6.64,10.99,10.77,18.68,10.77h.37s0,0,0,0c.25.91.6,1.75,1.04,2.51,1.92,3.32,5.5,5.39,9.34,5.39h0c1.88,0,3.74-.5,5.37-1.44,2.49-1.44,4.27-3.76,5.02-6.54.74-2.78.36-5.68-1.08-8.17-.44-.76-.99-1.48-1.65-2.16,4.04-6.72,4.12-15.11.21-21.88-.3-.53-.64-1.03-.98-1.53,14.28-13.19,24.6-30.59,29.02-50.2.59.05,1.18.09,1.78.09,7.83,0,15.05-4.26,18.85-11.12.91.23,1.81.35,2.69.35,5.94,0,10.77-4.83,10.77-10.77s-4.83-10.77-10.77-10.77ZM185.91,60.91c3.61-6.25,10.34-10.13,17.57-10.13l1.35.02.26-.94c.22-.8.53-1.55.92-2.21,1.69-2.93,4.85-4.75,8.24-4.75,1.66,0,3.3.44,4.74,1.27,2.2,1.27,3.77,3.32,4.42,5.77.66,2.45.32,5.01-.94,7.21-.39.67-.88,1.31-1.46,1.9l-.69.7.5.84c3.8,6.33,3.88,14.22.2,20.6-3.61,6.25-10.35,10.14-17.58,10.14-3.54,0-7.04-.94-10.12-2.72-4.69-2.71-8.04-7.08-9.44-12.31-1.4-5.23-.68-10.69,2.02-15.38ZM89.17,60.59l.5-.84-.69-.7c-.58-.59-1.07-1.23-1.46-1.9-1.27-2.2-1.61-4.76-.95-7.21.66-2.45,2.23-4.5,4.43-5.77,1.44-.83,3.08-1.27,4.74-1.27,3.39,0,6.55,1.82,8.24,4.75.39.67.7,1.41.92,2.22l.26.94,1.34-.02c7.23,0,13.97,3.88,17.58,10.13,2.71,4.69,3.43,10.15,2.03,15.38-1.4,5.23-4.76,9.6-9.44,12.31-3.08,1.78-6.58,2.72-10.12,2.72-7.23,0-13.96-3.89-17.57-10.14-3.68-6.38-3.61-14.27.2-20.6ZM40.32,164.8l-.47-.86-.95.25c-6.24,1.62-11.88-3.18-11.88-9.19,0-6.01,5.59-10.81,11.88-9.19l.95.24.47-.86c3.58-6.46,10.37-10.47,17.74-10.47,11.18,0,20.27,9.1,20.27,20.27s-9.1,20.28-20.27,20.28c-7.37,0-14.17-4.01-17.74-10.47ZM124.09,249.08c-3.61,6.25-10.34,10.13-17.57,10.13l-1.35-.02-.26.94c-.22.8-.53,1.54-.92,2.22-1.69,2.93-4.85,4.75-8.24,4.75-1.66,0-3.3-.44-4.74-1.27-4.54-2.62-6.1-8.44-3.48-12.98.39-.67.88-1.31,1.46-1.9l.69-.7-.5-.84c-3.81-6.33-3.88-14.22-.2-20.6,3.61-6.25,10.34-10.14,17.57-10.14,3.54,0,7.03.94,10.12,2.72,4.69,2.71,8.04,7.08,9.45,12.31,1.4,5.23.68,10.69-2.03,15.38ZM220.83,249.41l-.5.84.69.7c.59.6,1.08,1.24,1.46,1.9,1.27,2.2,1.61,4.76.95,7.21-.66,2.45-2.23,4.5-4.43,5.77-1.44.83-3.08,1.27-4.74,1.27-3.39,0-6.55-1.82-8.24-4.75-.39-.67-.69-1.41-.92-2.22l-.26-.94-1.34.02c-7.23,0-13.97-3.88-17.58-10.13-2.71-4.69-3.43-10.15-2.02-15.38,1.4-5.23,4.76-9.6,9.44-12.31,3.08-1.78,6.58-2.72,10.12-2.72,7.23,0,13.97,3.89,17.58,10.14,3.68,6.38,3.61,14.27-.2,20.6ZM220.38,225.63c-4.05-5.13-10.29-8.22-16.93-8.22-3.76,0-7.48,1-10.75,2.89-4.98,2.88-8.54,7.52-10.03,13.08-1.22,4.57-.9,9.29.84,13.6-9.01,2.8-18.58,4.33-28.5,4.33s-19.49-1.53-28.5-4.33c1.74-4.31,2.06-9.03.84-13.6-1.49-5.56-5.05-10.2-10.04-13.08-3.27-1.89-6.99-2.89-10.75-2.89-6.64,0-12.88,3.09-16.93,8.22-14.01-12.98-24.15-30.07-28.51-49.33,10.44-1.49,18.5-10.46,18.5-21.3s-8.06-19.81-18.5-21.3c4.37-19.26,14.5-36.35,28.51-49.33,4.05,5.13,10.29,8.22,16.93,8.22h0c3.76,0,7.48-1,10.75-2.89,4.98-2.88,8.55-7.52,10.03-13.08,1.22-4.57.9-9.29-.84-13.6,9.01-2.8,18.58-4.33,28.5-4.33s19.49,1.53,28.51,4.33c-1.74,4.31-2.06,9.03-.84,13.6,1.49,5.56,5.06,10.2,10.04,13.08,3.27,1.89,6.99,2.89,10.75,2.89h0c6.64,0,12.88-3.09,16.93-8.22,14.01,12.98,24.15,30.07,28.51,49.32-10.44,1.49-18.5,10.46-18.5,21.3s8.06,19.81,18.5,21.3c-4.37,19.26-14.5,36.35-28.51,49.33ZM271.1,164.19l-.95-.24-.47.86c-3.58,6.46-10.38,10.47-17.74,10.47-11.18,0-20.28-9.1-20.28-20.27s9.1-20.27,20.28-20.27c7.37,0,14.16,4.01,17.74,10.47l.47.86.95-.24c6.24-1.61,11.88,3.18,11.88,9.19s-5.63,10.8-11.88,9.19Z"/>
        </g>
        <g>
          <path class="cls-5" d="M214.23,59.96c-1.32,0-2.62-.35-3.77-1.01-3.61-2.09-4.86-6.72-2.77-10.34,1.35-2.33,3.86-3.78,6.56-3.78,1.32,0,2.62.35,3.77,1.01,1.75,1.01,3,2.64,3.53,4.59s.25,3.99-.76,5.74c-1.35,2.33-3.86,3.79-6.56,3.79h0Z"/>
          <path class="cls-6" d="M214.23,59.96c-1.32,0-2.62-.35-3.77-1.01-3.61-2.09-4.86-6.72-2.77-10.34,1.35-2.33,3.86-3.78,6.56-3.78,1.32,0,2.62.35,3.77,1.01,1.75,1.01,3,2.64,3.53,4.59s.25,3.99-.76,5.74c-1.35,2.33-3.86,3.79-6.56,3.79h0Z"/>
          <path class="cls-2" d="M214.23,59.96c-1.32,0-2.62-.35-3.77-1.01-3.61-2.09-4.86-6.72-2.77-10.34,1.35-2.33,3.86-3.78,6.56-3.78,1.32,0,2.62.35,3.77,1.01,1.75,1.01,3,2.64,3.53,4.59s.25,3.99-.76,5.74c-1.35,2.33-3.86,3.79-6.56,3.79h0Z"/>
        </g>
        <g>
          <path class="cls-5" d="M95.77,59.96c-2.7,0-5.21-1.45-6.56-3.79-1.01-1.75-1.28-3.79-.76-5.74.52-1.95,1.78-3.58,3.53-4.59,1.15-.66,2.46-1.01,3.77-1.01,2.7,0,5.21,1.45,6.56,3.78,2.09,3.61.84,8.25-2.77,10.34-1.15.66-2.46,1.01-3.77,1.01h0Z"/>
          <path class="cls-6" d="M95.77,59.96c-2.7,0-5.21-1.45-6.56-3.79-1.01-1.75-1.28-3.79-.76-5.74.52-1.95,1.78-3.58,3.53-4.59,1.15-.66,2.46-1.01,3.77-1.01,2.7,0,5.21,1.45,6.56,3.78,2.09,3.61.84,8.25-2.77,10.34-1.15.66-2.46,1.01-3.77,1.01h0Z"/>
          <path class="cls-2" d="M95.77,59.96c-2.7,0-5.21-1.45-6.56-3.79-1.01-1.75-1.28-3.79-.76-5.74.52-1.95,1.78-3.58,3.53-4.59,1.15-.66,2.46-1.01,3.77-1.01,2.7,0,5.21,1.45,6.56,3.78,2.09,3.61.84,8.25-2.77,10.34-1.15.66-2.46,1.01-3.77,1.01h0Z"/>
        </g>
        <g>
          <path class="cls-5" d="M251.94,173.34c-10.11,0-18.34-8.23-18.34-18.34s8.23-18.34,18.34-18.34c6.92,0,13.14,3.81,16.3,9.97-2.87,1.8-4.64,4.97-4.64,8.36s1.77,6.56,4.64,8.36c-3.16,6.16-9.38,9.97-16.3,9.97Z"/>
          <path class="cls-6" d="M251.94,173.34c-10.11,0-18.34-8.23-18.34-18.34s8.23-18.34,18.34-18.34c6.92,0,13.14,3.81,16.3,9.97-2.87,1.8-4.64,4.97-4.64,8.36s1.77,6.56,4.64,8.36c-3.16,6.16-9.38,9.97-16.3,9.97Z"/>
          <path class="cls-2" d="M251.94,173.34c-10.11,0-18.34-8.23-18.34-18.34s8.23-18.34,18.34-18.34c6.92,0,13.14,3.81,16.3,9.97-2.87,1.8-4.64,4.97-4.64,8.36s1.77,6.56,4.64,8.36c-3.16,6.16-9.38,9.97-16.3,9.97Z"/>
        </g>
        <g>
          <path class="cls-5" d="M203.45,89.39c-3.2,0-6.36-.85-9.15-2.46-4.24-2.45-7.28-6.4-8.54-11.13-1.27-4.73-.62-9.67,1.83-13.91,3.26-5.64,9.35-9.15,15.89-9.15.3,0,.6,0,.9.02.13,3.38,1.99,6.5,4.92,8.19,1.5.86,3.2,1.32,4.92,1.32,1.62,0,3.21-.4,4.64-1.15,3.75,5.82,3.95,13.11.49,19.1-3.27,5.66-9.36,9.17-15.9,9.17Z"/>
          <path class="cls-6" d="M203.45,89.39c-3.2,0-6.36-.85-9.15-2.46-4.24-2.45-7.28-6.4-8.54-11.13-1.27-4.73-.62-9.67,1.83-13.91,3.26-5.64,9.35-9.15,15.89-9.15.3,0,.6,0,.9.02.13,3.38,1.99,6.5,4.92,8.19,1.5.86,3.2,1.32,4.92,1.32,1.62,0,3.21-.4,4.64-1.15,3.75,5.82,3.95,13.11.49,19.1-3.27,5.66-9.36,9.17-15.9,9.17Z"/>
          <path class="cls-2" d="M203.45,89.39c-3.2,0-6.36-.85-9.15-2.46-4.24-2.45-7.28-6.4-8.54-11.13-1.27-4.73-.62-9.67,1.83-13.91,3.26-5.64,9.35-9.15,15.89-9.15.3,0,.6,0,.9.02.13,3.38,1.99,6.5,4.92,8.19,1.5.86,3.2,1.32,4.92,1.32,1.62,0,3.21-.4,4.64-1.15,3.75,5.82,3.95,13.11.49,19.1-3.27,5.66-9.36,9.17-15.9,9.17Z"/>
        </g>
        <g>
          <path class="cls-5" d="M106.55,89.39c-6.54,0-12.63-3.51-15.89-9.17-3.46-6-3.27-13.28.49-19.1,1.43.75,3.03,1.15,4.64,1.15,1.72,0,3.42-.46,4.91-1.32,2.93-1.69,4.8-4.81,4.92-8.19.3-.01.6-.02.9-.02,6.54,0,12.63,3.51,15.89,9.15,2.45,4.24,3.1,9.18,1.83,13.91-1.27,4.73-4.3,8.68-8.54,11.13-2.79,1.61-5.95,2.46-9.15,2.46h0Z"/>
          <path class="cls-6" d="M106.55,89.39c-6.54,0-12.63-3.51-15.89-9.17-3.46-6-3.27-13.28.49-19.1,1.43.75,3.03,1.15,4.64,1.15,1.72,0,3.42-.46,4.91-1.32,2.93-1.69,4.8-4.81,4.92-8.19.3-.01.6-.02.9-.02,6.54,0,12.63,3.51,15.89,9.15,2.45,4.24,3.1,9.18,1.83,13.91-1.27,4.73-4.3,8.68-8.54,11.13-2.79,1.61-5.95,2.46-9.15,2.46h0Z"/>
          <path class="cls-2" d="M106.55,89.39c-6.54,0-12.63-3.51-15.89-9.17-3.46-6-3.27-13.28.49-19.1,1.43.75,3.03,1.15,4.64,1.15,1.72,0,3.42-.46,4.91-1.32,2.93-1.69,4.8-4.81,4.92-8.19.3-.01.6-.02.9-.02,6.54,0,12.63,3.51,15.89,9.15,2.45,4.24,3.1,9.18,1.83,13.91-1.27,4.73-4.3,8.68-8.54,11.13-2.79,1.61-5.95,2.46-9.15,2.46h0Z"/>
        </g>
        <g>
          <path class="cls-5" d="M273.48,162.57c-4.17,0-7.57-3.39-7.57-7.57s3.39-7.57,7.57-7.57,7.57,3.4,7.57,7.57-3.39,7.57-7.57,7.57Z"/>
          <path class="cls-6" d="M273.48,162.57c-4.17,0-7.57-3.39-7.57-7.57s3.39-7.57,7.57-7.57,7.57,3.4,7.57,7.57-3.39,7.57-7.57,7.57Z"/>
          <path class="cls-2" d="M273.48,162.57c-4.17,0-7.57-3.39-7.57-7.57s3.39-7.57,7.57-7.57,7.57,3.4,7.57,7.57-3.39,7.57-7.57,7.57Z"/>
        </g>
        <g>
          <path class="cls-3" d="M154.95,218.52l-6.85-6.6,6.85-6.6,6.85,6.6-6.85,6.6ZM150.67,211.92l4.29,4.13,4.29-4.13-4.29-4.13-4.29,4.13ZM154.95,157.21l-3.41-4.76,3.41-4.76,3.41,4.76-3.41,4.76ZM153.19,152.45l1.77,2.47,1.77-2.47-1.77-2.47-1.77,2.47ZM154.95,151.6l-.61.86.61.86.61-.86-.61-.86ZM154.95,139.06c-.56,0-1.02.46-1.02,1.02s.46,1.02,1.02,1.02,1.02-.46,1.02-1.02-.46-1.02-1.02-1.02ZM154.95,134.52c-.56,0-1.02.46-1.02,1.02s.46,1.02,1.02,1.02,1.02-.46,1.02-1.02-.46-1.02-1.02-1.02ZM154.95,129.97c-.56,0-1.02.46-1.02,1.02s.46,1.02,1.02,1.02,1.02-.46,1.02-1.02-.46-1.02-1.02-1.02ZM154.95,125.42c-.56,0-1.02.46-1.02,1.02s.46,1.02,1.02,1.02,1.02-.46,1.02-1.02-.46-1.02-1.02-1.02ZM154.95,114.44l-2.57,2.57,2.57,2.57,2.57-2.57-2.57-2.57ZM154.95,209.28l-2.74,2.64,2.74,2.64,2.74-2.64-2.74-2.64ZM155.35,143.41v3.05l4.29,5.99-4.29,5.99v3.05l6.48-9.05-6.48-9.05ZM154.56,158.44l-4.29-5.99,4.29-5.99v-3.05l-6.48,9.05,6.48,9.05v-3.05ZM158.32,158.88l-2.97,3.89h0v7.73c3.3-.21,5.92-2.94,5.92-6.29,0-2.25-1.18-4.21-2.95-5.33ZM160.4,155.98l-1.56,2.17c1.99,1.28,3.32,3.52,3.32,6.06,0,3.97-3.23,7.21-7.21,7.21s-7.21-3.23-7.21-7.21c0-2.54,1.33-4.78,3.32-6.06l-1.56-2.17c-2.67,1.77-4.43,4.8-4.43,8.23,0,5.44,4.43,9.87,9.87,9.87s9.87-4.43,9.87-9.87c0-3.43-1.76-6.46-4.43-8.23ZM151.59,158.88c-1.77,1.12-2.95,3.08-2.95,5.33,0,3.35,2.62,6.09,5.92,6.29v-7.73l-2.97-3.89ZM99.21,173.56c.63,2.83,1.56,5.56,2.77,8.19l34.24-15.84c-.06-.04-.13-.09-.19-.13l-36.82,7.79ZM107.99,191.29l29.41-24.59c-.08-.05-.16-.1-.24-.15l-34.75,16.08c1.5,3.06,3.37,5.96,5.58,8.66ZM126.72,205.7l12.7-37.8s-.08-.04-.12-.06l-21.71,32.45c2.81,2.04,5.87,3.86,9.14,5.42ZM134.77,165.04h-36.49c0,2.58.25,5.1.74,7.56l35.75-7.56ZM138.44,167.35c-.06-.03-.12-.07-.18-.1l-29.65,24.79c2.39,2.8,5.13,5.37,8.18,7.67l21.65-32.36ZM140.3,168.35l-11.94,35.57,26.18-25.2c-6.23-.18-11.49-4.29-13.36-9.95l-.4-2-.47,1.59ZM173.96,165.77c-.06.05-.13.09-.19.13l34.24,15.84c1.21-2.62,2.15-5.36,2.77-8.19l-36.82-7.79ZM207.59,182.63l-34.75-16.08c-.08.05-.16.1-.24.15l29.41,24.59c2.21-2.7,4.08-5.6,5.58-8.66ZM192.41,200.28l-21.71-32.45s-.08.04-.12.06l12.7,37.8c3.27-1.55,6.32-3.37,9.14-5.42ZM210.98,172.6c.48-2.46.74-4.99.74-7.56h-36.49l35.75,7.56ZM193.2,199.7c3.05-2.3,5.79-4.87,8.18-7.67l-29.65-24.79c-.06.04-.12.07-.18.1l21.65,32.36ZM169.23,166.76l-.4,2c-1.87,5.65-7.13,9.77-13.36,9.95l26.18,25.2-11.94-35.57-.47-1.59ZM163.24,212.3l-.14.02-8.15,7.84-8.12-7.82-.18-.02c-1.34-.16-2.68-.37-4-.61l12.3,11.84,12.34-11.88c-1.34.25-2.7.46-4.05.63ZM154.32,180.45l-26.7,25.7c1.02.46,2.06.9,3.12,1.31l23.57-22.7v-4.32ZM155.61,180.48v4.32l23.5,22.63c1.06-.41,2.1-.85,3.11-1.32l-26.62-25.63ZM155.61,186.67v4.32l13.53,13.03,7.04,2.46-20.57-19.81ZM154.32,186.64l-20.62,19.85,7.04-2.46,13.58-13.07v-4.32ZM154.32,192.57l-12.39,11.93v4.32l12.39-11.93v-4.32ZM155.61,192.6v4.32l12.41,11.95v-4.32l-12.41-11.95ZM154.32,198.6l-12.53,12.06c1.63.32,3.28.58,4.96.78l7.57-7.28v-5.55ZM155.61,198.63v5.55l7.52,7.24c1.68-.2,3.33-.47,4.95-.79l-12.47-12.01ZM140.79,210.44v-5.23s-8.28,2.88-8.28,2.88c2.66.95,5.43,1.74,8.28,2.35ZM177.52,208.1l-8.29-2.88v5.23c2.87-.61,5.63-1.4,8.29-2.35ZM154.32,174.93c-5.63-.33-10.11-5.01-10.11-10.72,0-3.72,1.91-7.01,4.79-8.94l-1.55-2.17c-3.56,2.41-5.91,6.49-5.91,11.11,0,7.18,5.68,13.06,12.78,13.39v-2.67ZM162.46,153.1l-1.55,2.17c2.89,1.93,4.79,5.21,4.79,8.94,0,5.7-4.47,10.38-10.09,10.72v2.67c7.09-.34,12.76-6.22,12.76-13.39,0-4.62-2.35-8.7-5.91-11.11Z"/>
          <path class="cls-1" d="M154.95,218.52l-6.85-6.6,6.85-6.6,6.85,6.6-6.85,6.6ZM150.67,211.92l4.29,4.13,4.29-4.13-4.29-4.13-4.29,4.13ZM154.95,157.21l-3.41-4.76,3.41-4.76,3.41,4.76-3.41,4.76ZM153.19,152.45l1.77,2.47,1.77-2.47-1.77-2.47-1.77,2.47ZM154.95,151.6l-.61.86.61.86.61-.86-.61-.86ZM154.95,139.06c-.56,0-1.02.46-1.02,1.02s.46,1.02,1.02,1.02,1.02-.46,1.02-1.02-.46-1.02-1.02-1.02ZM154.95,134.52c-.56,0-1.02.46-1.02,1.02s.46,1.02,1.02,1.02,1.02-.46,1.02-1.02-.46-1.02-1.02-1.02ZM154.95,129.97c-.56,0-1.02.46-1.02,1.02s.46,1.02,1.02,1.02,1.02-.46,1.02-1.02-.46-1.02-1.02-1.02ZM154.95,125.42c-.56,0-1.02.46-1.02,1.02s.46,1.02,1.02,1.02,1.02-.46,1.02-1.02-.46-1.02-1.02-1.02ZM154.95,114.44l-2.57,2.57,2.57,2.57,2.57-2.57-2.57-2.57ZM154.95,209.28l-2.74,2.64,2.74,2.64,2.74-2.64-2.74-2.64ZM155.35,143.41v3.05l4.29,5.99-4.29,5.99v3.05l6.48-9.05-6.48-9.05ZM154.56,158.44l-4.29-5.99,4.29-5.99v-3.05l-6.48,9.05,6.48,9.05v-3.05ZM158.32,158.88l-2.97,3.89h0v7.73c3.3-.21,5.92-2.94,5.92-6.29,0-2.25-1.18-4.21-2.95-5.33ZM160.4,155.98l-1.56,2.17c1.99,1.28,3.32,3.52,3.32,6.06,0,3.97-3.23,7.21-7.21,7.21s-7.21-3.23-7.21-7.21c0-2.54,1.33-4.78,3.32-6.06l-1.56-2.17c-2.67,1.77-4.43,4.8-4.43,8.23,0,5.44,4.43,9.87,9.87,9.87s9.87-4.43,9.87-9.87c0-3.43-1.76-6.46-4.43-8.23ZM151.59,158.88c-1.77,1.12-2.95,3.08-2.95,5.33,0,3.35,2.62,6.09,5.92,6.29v-7.73l-2.97-3.89ZM99.21,173.56c.63,2.83,1.56,5.56,2.77,8.19l34.24-15.84c-.06-.04-.13-.09-.19-.13l-36.82,7.79ZM107.99,191.29l29.41-24.59c-.08-.05-.16-.1-.24-.15l-34.75,16.08c1.5,3.06,3.37,5.96,5.58,8.66ZM126.72,205.7l12.7-37.8s-.08-.04-.12-.06l-21.71,32.45c2.81,2.04,5.87,3.86,9.14,5.42ZM134.77,165.04h-36.49c0,2.58.25,5.1.74,7.56l35.75-7.56ZM138.44,167.35c-.06-.03-.12-.07-.18-.1l-29.65,24.79c2.39,2.8,5.13,5.37,8.18,7.67l21.65-32.36ZM140.3,168.35l-11.94,35.57,26.18-25.2c-6.23-.18-11.49-4.29-13.36-9.95l-.4-2-.47,1.59ZM173.96,165.77c-.06.05-.13.09-.19.13l34.24,15.84c1.21-2.62,2.15-5.36,2.77-8.19l-36.82-7.79ZM207.59,182.63l-34.75-16.08c-.08.05-.16.1-.24.15l29.41,24.59c2.21-2.7,4.08-5.6,5.58-8.66ZM192.41,200.28l-21.71-32.45s-.08.04-.12.06l12.7,37.8c3.27-1.55,6.32-3.37,9.14-5.42ZM210.98,172.6c.48-2.46.74-4.99.74-7.56h-36.49l35.75,7.56ZM193.2,199.7c3.05-2.3,5.79-4.87,8.18-7.67l-29.65-24.79c-.06.04-.12.07-.18.1l21.65,32.36ZM169.23,166.76l-.4,2c-1.87,5.65-7.13,9.77-13.36,9.95l26.18,25.2-11.94-35.57-.47-1.59ZM163.24,212.3l-.14.02-8.15,7.84-8.12-7.82-.18-.02c-1.34-.16-2.68-.37-4-.61l12.3,11.84,12.34-11.88c-1.34.25-2.7.46-4.05.63ZM154.32,180.45l-26.7,25.7c1.02.46,2.06.9,3.12,1.31l23.57-22.7v-4.32ZM155.61,180.48v4.32l23.5,22.63c1.06-.41,2.1-.85,3.11-1.32l-26.62-25.63ZM155.61,186.67v4.32l13.53,13.03,7.04,2.46-20.57-19.81ZM154.32,186.64l-20.62,19.85,7.04-2.46,13.58-13.07v-4.32ZM154.32,192.57l-12.39,11.93v4.32l12.39-11.93v-4.32ZM155.61,192.6v4.32l12.41,11.95v-4.32l-12.41-11.95ZM154.32,198.6l-12.53,12.06c1.63.32,3.28.58,4.96.78l7.57-7.28v-5.55ZM155.61,198.63v5.55l7.52,7.24c1.68-.2,3.33-.47,4.95-.79l-12.47-12.01ZM140.79,210.44v-5.23s-8.28,2.88-8.28,2.88c2.66.95,5.43,1.74,8.28,2.35ZM177.52,208.1l-8.29-2.88v5.23c2.87-.61,5.63-1.4,8.29-2.35ZM154.32,174.93c-5.63-.33-10.11-5.01-10.11-10.72,0-3.72,1.91-7.01,4.79-8.94l-1.55-2.17c-3.56,2.41-5.91,6.49-5.91,11.11,0,7.18,5.68,13.06,12.78,13.39v-2.67ZM162.46,153.1l-1.55,2.17c2.89,1.93,4.79,5.21,4.79,8.94,0,5.7-4.47,10.38-10.09,10.72v2.67c7.09-.34,12.76-6.22,12.76-13.39,0-4.62-2.35-8.7-5.91-11.11Z"/>
        </g>
      </g>
    </g>
  </g>
</svg>