<?xml version="1.0" encoding="UTF-8"?>
<svg id="Layer_2" data-name="Layer 2" xmlns="http://www.w3.org/2000/svg" viewBox="0 0 74 95">
  <defs>
    <style>
      .cls-1 {
        stroke: #c2ad76;
        stroke-width: 2px;
      }

      .cls-1, .cls-2 {
        fill: none;
      }

      .cls-3 {
        fill: #c2ad76;
      }

      .cls-4 {
        fill: #f0e3c6;
      }
    </style>
  </defs>
  <g id="ELEMENTOS">
    <g>
      <rect class="cls-2" width="74" height="95"/>
      <g>
        <g>
          <path class="cls-4" d="M37,89.2c-17.37,0-31.5-14.13-31.5-31.5s14.13-31.5,31.5-31.5,31.5,14.13,31.5,31.5-14.13,31.5-31.5,31.5Z"/>
          <path class="cls-3" d="M37,26.7c17.09,0,31,13.91,31,31s-13.91,31-31,31-31-13.91-31-31,13.91-31,31-31M37,25.7c-17.67,0-32,14.33-32,32s14.33,32,32,32,32-14.33,32-32-14.33-32-32-32h0Z"/>
        </g>
        <path class="cls-1" d="M64,35.46V7.76l-4.76-4.76H14.76l-4.76,4.76v27.7c-5,6.05-8,13.81-8,22.25,0,19.3,15.7,35,35,35s35-15.7,35-35c0-8.44-3-16.2-8-22.25Z"/>
      </g>
    </g>
  </g>
</svg>