<?xml version="1.0" encoding="UTF-8"?>
<svg id="Layer_2" data-name="Layer 2" xmlns="http://www.w3.org/2000/svg" viewBox="0 0 232 27">
  <defs>
    <style>
      .cls-1 {
        stroke-width: 2px;
      }

      .cls-1, .cls-2 {
        stroke: #c2ad76;
      }

      .cls-1, .cls-2, .cls-3 {
        fill: none;
      }

      .cls-4 {
        fill: #c2ad76;
      }

      .cls-5 {
        fill: #f0e3c6;
      }
    </style>
  </defs>
  <g id="ELEMENTOS">
    <g>
      <rect class="cls-3" width="232" height="27"/>
      <g>
        <g>
          <g>
            <path class="cls-5" d="M169,13.5c0-2.39.81-4.58,2.15-6.35-.71-.71-1.29-1.29-2.15-2.15H8c-1.17,1.17-1.83,1.83-3,3v11c1.17,1.17,1.83,1.83,3,3h161c.86-.86,1.44-1.44,2.15-2.15-1.34-1.76-2.15-3.96-2.15-6.35Z"/>
            <path class="cls-2" d="M168.5,13.5c0-2.27.69-4.44,1.99-6.3l-1.7-1.7H8.21l-.37.37-2,2-.34.34v10.59l.34.34,2,2,.37.37h160.59l1.7-1.7c-1.31-1.86-2-4.03-2-6.3Z"/>
          </g>
          <g>
            <path class="cls-5" d="M190.14,13.5c0,2.39-.8,4.58-2.14,6.35.71.71,1.29,1.29,2.14,2.15h33.87c1.17-1.17,1.82-1.83,2.99-3v-11c-1.17-1.17-1.82-1.83-2.99-3h-33.87c-.85.86-1.44,1.44-2.14,2.15,1.34,1.76,2.14,3.96,2.14,6.35Z"/>
            <path class="cls-2" d="M223.8,5.5h-33.45l-1.7,1.7c1.3,1.86,1.99,4.03,1.99,6.3,0,1.91-.49,3.74-1.42,5.38-.18.31-.36.62-.57.92l.77.77-.12-.12,1.05,1.05h33.45l2.7-2.71v-10.59l-2.7-2.71ZM189.2,18.93c-.06.11-.13.22-.2.33.07-.11.13-.22.2-.33Z"/>
          </g>
          <g>
            <circle class="cls-5" cx="179.5" cy="13.5" r="8"/>
            <path class="cls-4" d="M179.5,6c4.14,0,7.5,3.36,7.5,7.5s-3.36,7.5-7.5,7.5-7.5-3.36-7.5-7.5,3.36-7.5,7.5-7.5M179.5,5c-4.69,0-8.5,3.81-8.5,8.5s3.81,8.5,8.5,8.5,8.5-3.81,8.5-8.5-3.81-8.5-8.5-8.5h0Z"/>
          </g>
        </g>
        <path class="cls-1" d="M225.25,2h-36.36l-2.39,2.4c-1.94-1.5-4.37-2.4-7.01-2.4s-4.99.88-6.92,2.34l-2.34-2.34H6.76L2,6.76v13.48l4.76,4.76h163.48l2.34-2.34c1.93,1.46,4.32,2.34,6.92,2.34s5.06-.9,7-2.4l2.4,2.4h36.36l4.75-4.76V6.76l-4.75-4.76Z"/>
      </g>
    </g>
  </g>
</svg>