<?xml version="1.0" encoding="UTF-8"?>
<svg id="Layer_2" data-name="Layer 2" xmlns="http://www.w3.org/2000/svg" viewBox="0 0 195 35">
  <defs>
    <style>
      .cls-1 {
        stroke: #c2ad76;
        stroke-width: 2px;
      }

      .cls-1, .cls-2 {
        fill: none;
      }

      .cls-3 {
        fill: #c2ad76;
      }

      .cls-4 {
        fill: #f0e3c6;
      }
    </style>
  </defs>
  <g id="ELEMENTOS">
    <g>
      <rect class="cls-2" width="195" height="35"/>
      <g>
        <g>
          <path class="cls-4" d="M177.5,29.5c-6.62,0-12-5.38-12-12s5.38-12,12-12,12,5.38,12,12-5.38,12-12,12Z"/>
          <path class="cls-3" d="M177.5,6c6.34,0,11.5,5.16,11.5,11.5s-5.16,11.5-11.5,11.5-11.5-5.16-11.5-11.5,5.16-11.5,11.5-11.5M177.5,5c-6.9,0-12.5,5.6-12.5,12.5s5.6,12.5,12.5,12.5,12.5-5.6,12.5-12.5-5.6-12.5-12.5-12.5h0Z"/>
        </g>
        <path class="cls-1" d="M177.5,2c-3.98,0-7.61,1.52-10.36,4H7.76l-4.76,4.76v13.49l4.76,4.76h159.39c2.75,2.48,6.37,4,10.36,4,8.55,0,15.5-6.95,15.5-15.5s-6.95-15.5-15.5-15.5Z"/>
      </g>
    </g>
  </g>
</svg>