<?xml version="1.0" encoding="UTF-8"?>
<svg id="Layer_2" data-name="Layer 2" xmlns="http://www.w3.org/2000/svg" xmlns:xlink="http://www.w3.org/1999/xlink" viewBox="0 0 438 194">
  <defs>
    <style>
      .cls-1 {
        fill: #c2ad76;
      }

      .cls-2 {
        fill: #f0e3c6;
      }

      .cls-3 {
        mask: url(#mask);
      }

      .cls-4 {
        filter: url(#luminosity-noclip);
      }
    </style>
    <filter id="luminosity-noclip" x="0" y="0" width="438" height="194" color-interpolation-filters="sRGB" filterUnits="userSpaceOnUse">
      <feFlood flood-color="#fff" result="bg"/>
      <feBlend in="SourceGraphic" in2="bg"/>
    </filter>
    <mask id="mask" x="0" y="0" width="438" height="194" maskUnits="userSpaceOnUse">
      <g class="cls-4">
        <circle cx="97" cy="97" r="95"/>
      </g>
    </mask>
  </defs>
  <g id="NOVOS_3" data-name="NOVOS 3">
    <g class="cls-3">
      <g>
        <g>
          <path class="cls-2" d="M154.38,84.5l-3.88-3.88v-12.24l3.88-3.88h82.8l.11-.35c2.85-9.33,26.89-16.65,54.71-16.65s51.86,7.31,54.71,16.65l.11.35h82.8l3.88,3.88v12.24l-3.88,3.88H154.38Z"/>
          <path class="cls-1" d="M292,48c27.62,0,51.44,7.16,54.24,16.29l.22.71h82.96l3.59,3.59v11.83l-3.59,3.59H154.59l-3.59-3.59v-11.83l3.59-3.59h82.96l.22-.71c2.79-9.14,26.62-16.29,54.24-16.29M292,47c-28.68,0-52.27,7.45-55.19,17h-82.64l-4.17,4.17v12.66l4.17,4.17h275.66l4.17-4.17v-12.66l-4.17-4.17h-82.64c-2.92-9.55-26.51-17-55.19-17h0Z"/>
          <path class="cls-1" d="M292,45c28.49,0,51.68,7.07,56.54,17h82.11l5.34,5.34v14.31l-5.34,5.34H153.34l-5.34-5.34v-14.31l5.34-5.34h82.11c4.86-9.93,28.05-17,56.54-17M292,43c-28.56,0-51.39,6.78-57.72,17h-81.77l-.59.59-5.34,5.34-.59.59v15.97l.59.59,5.34,5.34.59.59h278.97l.59-.59,5.34-5.34.59-.59v-15.97l-.59-.59-5.34-5.34-.59-.59h-81.77c-6.33-10.22-29.16-17-57.72-17h0Z"/>
        </g>
        <g>
          <path class="cls-2" d="M154.38,140.5l-3.88-3.88v-12.24l3.88-3.88h82.8l.11-.35c2.85-9.33,26.89-16.65,54.71-16.65s51.86,7.31,54.71,16.65l.11.35h82.8l3.88,3.88v12.24l-3.88,3.88H154.38Z"/>
          <path class="cls-1" d="M292,104c27.62,0,51.44,7.16,54.24,16.29l.22.71h82.96l3.59,3.59v11.83l-3.59,3.59H154.59l-3.59-3.59v-11.83l3.59-3.59h82.96l.22-.71c2.79-9.14,26.62-16.29,54.24-16.29M292,103c-28.68,0-52.27,7.45-55.19,17h-82.64l-4.17,4.17v12.66l4.17,4.17h275.66l4.17-4.17v-12.66l-4.17-4.17h-82.64c-2.92-9.55-26.51-17-55.19-17h0Z"/>
          <path class="cls-1" d="M292,101c28.49,0,51.68,7.07,56.54,17h82.11l5.34,5.34v14.31l-5.34,5.34H153.34l-5.34-5.34v-14.31l5.34-5.34h82.11c4.86-9.93,28.05-17,56.54-17M292,99c-28.56,0-51.39,6.78-57.72,17h-81.77l-.59.59-5.34,5.34-.59.59v15.97l.59.59,5.34,5.34.59.59h278.97l.59-.59,5.34-5.34.59-.59v-15.97l-.59-.59-5.34-5.34-.59-.59h-81.77c-6.33-10.22-29.16-17-57.72-17h0Z"/>
        </g>
        <path class="cls-1" d="M97,2c52.38,0,95,42.62,95,95s-42.62,95-95,95S2,149.38,2,97,44.62,2,97,2M97,0C43.43,0,0,43.43,0,97s43.43,97,97,97,97-43.43,97-97S150.57,0,97,0h0Z"/>
      </g>
    </g>
  </g>
</svg>