<?xml version="1.0" encoding="UTF-8"?>
<svg id="Layer_2" data-name="Layer 2" xmlns="http://www.w3.org/2000/svg" viewBox="0 0 412 116">
  <defs>
    <style>
      .cls-1 {
        fill: #c2ad76;
      }

      .cls-2 {
        fill: #f0e3c6;
      }

      .cls-3 {
        fill: none;
      }
    </style>
  </defs>
  <g id="ELEMENTOS">
    <g>
      <rect class="cls-3" width="412" height="116"/>
      <g>
        <path class="cls-2" d="M9.38,110.5l-3.88-3.88V26.38l3.88-3.88h142.8l.11-.35c2.85-9.33,26.89-16.65,54.71-16.65s51.86,7.31,54.71,16.65l.11.35h140.8l3.88,3.88v80.24l-3.88,3.88H9.38Z"/>
        <path class="cls-1" d="M207,6c27.62,0,51.44,7.16,54.24,16.29l.22.71h140.96l3.59,3.59v79.83l-3.59,3.59H9.59l-3.59-3.59V26.59l3.59-3.59h142.96l.22-.71c2.79-9.14,26.62-16.29,54.24-16.29M207,5c-28.68,0-52.27,7.45-55.19,17H9.17l-4.17,4.17v80.66l4.17,4.17h393.66l4.17-4.17V26.17l-4.17-4.17h-140.64c-2.92-9.55-26.51-17-55.19-17h0Z"/>
        <path class="cls-1" d="M207,3c28.49,0,51.68,7.07,56.54,17h140.11l5.34,5.34v82.31l-5.34,5.34H8.34l-5.34-5.34V25.34l5.34-5.34h142.11c4.86-9.93,28.05-17,56.54-17M207,1c-28.56,0-51.39,6.78-57.72,17H7.52l-.59.59-5.34,5.34-.59.59v83.97l.59.59,5.34,5.34.59.59h396.97l.59-.59,5.34-5.34.59-.59V24.51l-.59-.59-5.34-5.34-.59-.59h-139.77c-6.33-10.22-29.16-17-57.72-17h0Z"/>
      </g>
    </g>
  </g>
</svg>