<?xml version="1.0" encoding="UTF-8"?>
<svg id="Layer_2" data-name="Layer 2" xmlns="http://www.w3.org/2000/svg" viewBox="0 0 194 27">
  <defs>
    <style>
      .cls-1 {
        fill: #c2ad76;
      }

      .cls-2 {
        fill: #f0e3c6;
      }

      .cls-3 {
        fill: none;
      }
    </style>
  </defs>
  <g id="ELEMENTOS">
    <g>
      <rect class="cls-3" width="194" height="27"/>
      <g>
        <polygon class="cls-2" points="8.21 21.5 5.5 18.79 5.5 8.21 8.21 5.5 185.79 5.5 188.5 8.21 188.5 18.79 185.79 21.5 8.21 21.5"/>
        <path class="cls-1" d="M185.59,6l1.21,1.21,1.21,1.21v10.17l-1.21,1.21-1.21,1.21H8.41l-1.21-1.21-1.21-1.21v-10.17l1.21-1.21,1.21-1.21h177.17M186,5H8c-1.17,1.17-1.83,1.83-3,3v11c1.17,1.17,1.83,1.83,3,3h178c1.17-1.17,1.83-1.83,3-3v-11c-1.17-1.17-1.83-1.83-3-3h0Z"/>
        <path class="cls-1" d="M186.83,3l4.17,4.17v12.66l-4.17,4.17H7.17l-4.17-4.17V7.17L7.17,3h179.66M187.66,1H6.34l-.59.59L1.59,5.76l-.59.59v14.31l.59.59,4.17,4.17.59.59h181.31l.59-.59,4.17-4.17.59-.59V6.34l-.59-.59-4.17-4.17-.59-.59h0Z"/>
      </g>
    </g>
  </g>
</svg>