<?xml version="1.0" encoding="UTF-8"?>
<svg id="Layer_2" data-name="Layer 2" xmlns="http://www.w3.org/2000/svg" viewBox="0 0 86 95">
  <defs>
    <style>
      .cls-1, .cls-2 {
        stroke: #c2ad76;
        stroke-width: 2px;
      }

      .cls-1, .cls-3 {
        fill: none;
      }

      .cls-4 {
        fill: #c2ad76;
      }

      .cls-2 {
        fill: #fff;
        stroke-miterlimit: 10;
      }

      .cls-5 {
        fill: #f0e3c6;
      }

      .cls-6 {
        fill: #2c2611;
      }
    </style>
  </defs>
  <g id="NOVOS_3" data-name="NOVOS 3">
    <g>
      <rect class="cls-3" width="86" height="95"/>
      <polygon class="cls-5" points="74.21 89.5 71.5 86.79 71.5 9.21 74.21 6.5 77.79 6.5 80.5 9.21 80.5 86.79 77.79 89.5 74.21 89.5"/>
      <g>
        <rect class="cls-6" x="71.5" y="56" width="9" height="8"/>
        <polygon class="cls-6" points="71.5 86.79 74.21 89.5 77.79 89.5 80.5 86.79 80.5 81 71.5 81 71.5 86.79"/>
        <rect class="cls-6" x="71.5" y="72" width="9" height="9"/>
        <rect class="cls-6" x="71.5" y="48" width="9" height="8"/>
        <rect class="cls-6" x="71.5" y="64" width="9" height="8"/>
        <rect class="cls-6" x="71.5" y="39" width="9" height="9"/>
      </g>
      <path class="cls-4" d="M77.59,7l1.21,1.21,1.21,1.21v77.17l-1.21,1.21-1.21,1.21h-3.17l-1.21-1.21-1.21-1.21V9.41l1.21-1.21,1.21-1.21h3.17M78,6h-4c-1.17,1.17-1.83,1.83-3,3v78c1.17,1.17,1.83,1.83,3,3h4c1.17-1.17,1.83-1.83,3-3V9c-1.17-1.17-1.83-1.83-3-3h0Z"/>
      <g>
        <g>
          <path class="cls-5" d="M37,89.2c-17.37,0-31.5-14.13-31.5-31.5s14.13-31.5,31.5-31.5,31.5,14.13,31.5,31.5-14.13,31.5-31.5,31.5Z"/>
          <path class="cls-4" d="M37,26.7c17.09,0,31,13.91,31,31s-13.91,31-31,31-31-13.91-31-31,13.91-31,31-31M37,25.7c-17.67,0-32,14.33-32,32s14.33,32,32,32,32-14.33,32-32-14.33-32-32-32h0Z"/>
        </g>
        <path class="cls-1" d="M64,35.46V7.76l-4.76-4.76H14.76l-4.76,4.76v27.7c-5,6.05-8,13.81-8,22.25,0,19.3,15.7,35,35,35s35-15.7,35-35c0-8.44-3-16.2-8-22.25Z"/>
      </g>
      <polygon class="cls-4" points="84.41 6.76 80.24 2.59 79.66 2 78.83 2 73.17 2 72.34 2 71.76 2.59 67.59 6.76 67 7.34 67 8.17 67 42 69 42 69 8.17 73.17 4 78.83 4 83 8.17 83 87.83 78.83 92 73.17 92 69 87.83 69 72 67 76 67 87.83 67 88.66 67.59 89.24 71.76 93.41 72.34 94 73.17 94 78.83 94 79.66 94 80.24 93.41 84.41 89.24 85 88.66 85 87.83 85 8.17 85 7.34 84.41 6.76"/>
      <line class="cls-2" x1="5" y1="58" x2="68" y2="58"/>
    </g>
  </g>
</svg>