<?xml version="1.0" encoding="UTF-8"?>
<svg id="Layer_2" data-name="Layer 2" xmlns="http://www.w3.org/2000/svg" viewBox="0 0 203.16 23">
  <defs>
    <style>
      .cls-1 {
        fill: #c2ad76;
      }
    </style>
  </defs>
  <g id="Objects">
    <g>
      <path class="cls-1" d="M203.16,10.81c-.28-1.94-1.94-3.44-3.96-3.44s-3.68,1.5-3.96,3.44h-62.56v1.18h62.56c.29,1.93,1.95,3.42,3.96,3.42s3.66-1.49,3.96-3.42M199.2,14.22c-1.56,0-2.84-1.27-2.84-2.84s1.27-2.84,2.84-2.84,2.84,1.27,2.84,2.84-1.27,2.84-2.84,2.84Z"/>
      <path class="cls-1" d="M128.18,7c-2.31,0-4.2,1.76-4.45,4h-10.08c-.26-6.11-5.3-11-11.47-11s-11.5,5.16-11.5,11.5,5.16,11.5,11.5,11.5,11.21-4.89,11.47-11h10.08c.25,2.24,2.14,4,4.45,4,2.48,0,4.5-2.02,4.5-4.5s-2.02-4.5-4.5-4.5ZM102.18,22c-5.79,0-10.5-4.71-10.5-10.5s4.71-10.5,10.5-10.5,10.5,4.71,10.5,10.5-4.71,10.5-10.5,10.5ZM128.18,15c-1.93,0-3.5-1.57-3.5-3.5s1.57-3.5,3.5-3.5,3.5,1.57,3.5,3.5-1.57,3.5-3.5,3.5Z"/>
      <circle class="cls-1" cx="102.18" cy="11.5" r="6.5"/>
      <path class="cls-1" d="M0,11.99c.29,1.93,1.95,3.42,3.96,3.42s3.66-1.49,3.96-3.42h63.82c.25,2.25,2.14,4.01,4.45,4.01s4.2-1.76,4.45-4h10.05v-1h-10.05c-.25-2.24-2.14-4-4.45-4s-4.09,1.66-4.43,3.81H7.92c-.28-1.94-1.94-3.44-3.96-3.44s-3.67,1.5-3.96,3.44M3.96,14.22c-1.56,0-2.84-1.27-2.84-2.84s1.27-2.84,2.84-2.84,2.84,1.27,2.84,2.84-1.27,2.84-2.84,2.84ZM76.18,15c-1.93,0-3.5-1.57-3.5-3.5s1.57-3.5,3.5-3.5,3.5,1.57,3.5,3.5-1.57,3.5-3.5,3.5Z"/>
    </g>
  </g>
</svg>