<?xml version="1.0" encoding="UTF-8"?>
<svg id="Layer_2" data-name="Layer 2" xmlns="http://www.w3.org/2000/svg" viewBox="0 0 349.64 23">
  <defs>
    <style>
      .cls-1 {
        fill: #c2ad76;
      }
    </style>
  </defs>
  <g id="Objects">
    <g>
      <path class="cls-1" d="M5.44,8.64c-1.41,0-2.58,1.07-2.73,2.45h5.45c-.15-1.38-1.31-2.45-2.73-2.45Z"/>
      <path class="cls-1" d="M5.44,14.13c1.41,0,2.58-1.07,2.73-2.45H2.72c.15,1.38,1.31,2.45,2.73,2.45Z"/>
      <path class="cls-1" d="M349.6,10.63c-.37-2.67-2.65-4.73-5.41-4.73s-5.13,2.16-5.43,4.91h-62.36c-.28-1.94-1.94-3.44-3.96-3.44s-3.68,1.5-3.96,3.44h-62.56v1.18h62.56c.29,1.93,1.95,3.42,3.96,3.42s3.66-1.49,3.96-3.42h62.37c.3,2.74,2.61,4.89,5.43,4.89s5.22-2.24,5.44-5.06M272.44,14.22c-1.56,0-2.84-1.27-2.84-2.84s1.27-2.84,2.84-2.84,2.84,1.27,2.84,2.84-1.27,2.84-2.84,2.84ZM344.19,15.69c-2.37,0-4.31-1.93-4.31-4.31s1.93-4.31,4.31-4.31,4.31,1.93,4.31,4.31-1.93,4.31-4.31,4.31Z"/>
      <path class="cls-1" d="M344.19,8.64c-1.41,0-2.58,1.07-2.73,2.45h5.45c-.15-1.38-1.31-2.45-2.73-2.45Z"/>
      <path class="cls-1" d="M344.19,14.13c1.41,0,2.58-1.07,2.73-2.45h-5.45c.15,1.38,1.31,2.45,2.73,2.45Z"/>
      <path class="cls-1" d="M201.42,7c-2.31,0-4.2,1.76-4.45,4h-10.08c-.26-6.11-5.3-11-11.47-11s-11.5,5.16-11.5,11.5,5.16,11.5,11.5,11.5,11.21-4.89,11.47-11h10.08c.25,2.24,2.14,4,4.45,4,2.48,0,4.5-2.02,4.5-4.5s-2.02-4.5-4.5-4.5ZM175.42,22c-5.79,0-10.5-4.71-10.5-10.5s4.71-10.5,10.5-10.5,10.5,4.71,10.5,10.5-4.71,10.5-10.5,10.5ZM201.42,15c-1.93,0-3.5-1.57-3.5-3.5s1.57-3.5,3.5-3.5,3.5,1.57,3.5,3.5-1.57,3.5-3.5,3.5Z"/>
      <circle class="cls-1" cx="175.42" cy="11.5" r="6.5"/>
      <path class="cls-1" d="M0,11.81c.22,2.82,2.56,5.06,5.44,5.06s5.12-2.15,5.43-4.89h62.37c.29,1.93,1.95,3.42,3.96,3.42s3.66-1.49,3.96-3.42h63.82c.25,2.25,2.14,4.01,4.45,4.01s4.2-1.76,4.45-4h10.05v-1h-10.05c-.25-2.24-2.14-4-4.45-4s-4.09,1.66-4.43,3.81h-63.83c-.28-1.94-1.94-3.44-3.96-3.44s-3.67,1.5-3.96,3.44H10.87c-.29-2.75-2.6-4.91-5.43-4.91S.41,7.96.03,10.63M5.44,15.69c-2.37,0-4.31-1.93-4.31-4.31s1.93-4.31,4.31-4.31,4.31,1.93,4.31,4.31-1.93,4.31-4.31,4.31ZM77.2,14.22c-1.56,0-2.84-1.27-2.84-2.84s1.27-2.84,2.84-2.84,2.84,1.27,2.84,2.84-1.27,2.84-2.84,2.84ZM149.42,15c-1.93,0-3.5-1.57-3.5-3.5s1.57-3.5,3.5-3.5,3.5,1.57,3.5,3.5-1.57,3.5-3.5,3.5Z"/>
    </g>
  </g>
</svg>