<?xml version="1.0" encoding="UTF-8"?>
<svg id="Layer_2" data-name="Layer 2" xmlns="http://www.w3.org/2000/svg" viewBox="0 0 194 99">
  <defs>
    <style>
      .cls-1 {
        fill: #c2ad76;
      }

      .cls-2 {
        fill: none;
      }
    </style>
  </defs>
  <g id="ELEMENTOS">
    <g>
      <rect class="cls-2" width="194" height="99"/>
      <g>
        <path class="cls-1" d="M184.41,6l3.59,3.59v79.83l-3.59,3.59H9.59l-3.59-3.59V9.59l3.59-3.59h174.83M184.83,5H9.17l-4.17,4.17v80.66l4.17,4.17h175.66l4.17-4.17V9.17l-4.17-4.17h0Z"/>
        <path class="cls-1" d="M185.66,3l5.34,5.34v82.31l-5.34,5.34H8.34l-5.34-5.34V8.34l5.34-5.34h177.31M186.48,1H7.52l-.59.59L1.59,6.93l-.59.59v83.97l.59.59,5.34,5.34.59.59h178.97l.59-.59,5.34-5.34.59-.59V7.51l-.59-.59-5.34-5.34-.59-.59h0Z"/>
      </g>
    </g>
  </g>
</svg>